# This file uses centimeters as units for non-parametric coordinates.

mtllib CHATA_crystal_1.mtl
g default
v 0.000000 0.703809 -1.837654
v 0.723607 1.229540 -1.284868
v -0.225709 2.979952 -1.503039
v -0.894427 0.703809 -1.284868
v -0.276393 -0.935215 -1.132813
v 0.432455 -0.835117 -1.155694
v 1.054027 -0.489566 -0.228480
v 0.276393 1.554460 -0.390440
v -0.723607 1.229540 -0.390440
v 0.160856 -0.871107 0.249958
v 0.797599 -1.642122 0.466728
v 0.609172 -0.362990 0.334576
v 2.024829 0.415695 -0.484045
v 2.096171 0.726211 0.049031
v 1.790814 1.760068 -0.438562
v 1.420410 0.415695 -0.626729
v 1.615023 -0.552372 -0.305107
v 1.920625 -0.493250 -0.018618
v 1.244259 -0.720110 0.601027
v 1.535844 0.918121 0.235807
v 1.118201 0.726211 -0.181836
v 0.938880 -0.057050 1.982507
v 0.467606 0.237198 1.788480
v 1.012431 1.216890 1.768911
v 1.342350 -0.057050 1.554093
v 0.986201 -1.158585 1.132848
v 0.606298 -1.102561 1.247902
v 0.579814 0.419053 1.240151
v 1.120435 0.237198 1.095292
vt 1.000000 0.500000
vt 0.838104 0.676208
vt 0.088104 0.823792
vt 0.176208 0.500000
vt 0.088104 0.176208
vt 0.838104 0.323792
vt 0.676208 0.500000
vt 0.588104 0.823792
vt 0.338104 0.676208
vt 0.338104 0.323792
vt 0.588104 0.176208
vt 0.500000 0.500000
vt 1.088104 0.823792
vt 1.176208 0.500000
vt 1.088104 0.176208
vt 1.000000 0.500000
vt 1.088104 0.823792
vt 0.838104 0.676208
vt 1.176208 0.500000
vt 1.088104 0.176208
vt 0.838104 0.323792
vt 0.588104 0.823792
vt 0.088104 0.823792
vt 0.176208 0.500000
vt 0.338104 0.676208
vt 0.088104 0.176208
vt 0.338104 0.323792
vt 0.588104 0.176208
vt 0.676208 0.500000
vt 0.500000 0.500000
vt 1.000000 0.500000
vt 1.088104 0.823792
vt 0.838104 0.676208
vt 1.176208 0.500000
vt 1.088104 0.176208
vt 0.838104 0.323792
vt 0.588104 0.823792
vt 0.088104 0.823792
vt 0.176208 0.500000
vt 0.338104 0.676208
vt 0.088104 0.176208
vt 0.338104 0.323792
vt 0.588104 0.176208
vt 0.676208 0.500000
vt 0.500000 0.500000
vn 0.514586 0.174443 -0.839507
vn 0.514586 0.174443 -0.839507
vn 0.514586 0.174443 -0.839507
vn -0.524339 0.072728 -0.848398
vn -0.524339 0.072728 -0.848398
vn -0.524339 0.072728 -0.848398
vn -0.506632 -0.267088 -0.819749
vn -0.506632 -0.267087 -0.819749
vn -0.506632 -0.267088 -0.819749
vn 0.026713 -0.398714 -0.916686
vn 0.026713 -0.398714 -0.916686
vn 0.026713 -0.398714 -0.916686
vn 0.663144 -0.139523 -0.735373
vn 0.663144 -0.139523 -0.735373
vn 0.663144 -0.139523 -0.735373
vn 0.839583 0.485671 0.243361
vn 0.839583 0.485671 0.243361
vn 0.839583 0.485671 0.243361
vn -0.958885 0.283307 0.016607
vn -0.958886 0.283307 0.016607
vn -0.958885 0.283307 0.016607
vn -0.901564 -0.312166 0.299558
vn -0.901564 -0.312166 0.299558
vn -0.901564 -0.312166 0.299558
vn 0.109338 -0.879955 -0.462304
vn 0.109338 -0.879955 -0.462304
vn 0.109338 -0.879955 -0.462304
vn 0.846225 -0.151296 -0.510895
vn 0.846224 -0.151296 -0.510895
vn 0.846225 -0.151296 -0.510895
vn 0.880318 0.359441 0.309585
vn 0.880318 0.359441 0.309585
vn 0.880318 0.359441 0.309585
vn -0.183236 0.563942 0.805230
vn -0.183236 0.563942 0.805230
vn -0.183236 0.563942 0.805229
vn -0.900597 -0.277101 0.334874
vn -0.900597 -0.277101 0.334874
vn -0.900597 -0.277101 0.334874
vn -0.778107 -0.566045 0.272290
vn -0.778107 -0.566045 0.272290
vn -0.778107 -0.566045 0.272290
vn 0.818688 -0.419000 -0.392669
vn 0.818688 -0.419000 -0.392669
vn 0.818688 -0.419000 -0.392669
vn 0.774137 0.336975 0.535872
vn 0.774137 0.336975 0.535872
vn 0.774137 0.336975 0.535872
vn -0.108845 0.334992 0.935913
vn -0.108845 0.334992 0.935913
vn -0.108846 0.334992 0.935913
vn -0.336666 0.142026 0.930852
vn -0.336666 0.142026 0.930852
vn -0.336666 0.142026 0.930852
vn -0.253026 0.062470 0.965440
vn -0.253026 0.062470 0.965440
vn -0.253026 0.062470 0.965440
vn 0.791231 0.177028 0.585334
vn 0.791230 0.177028 0.585334
vn 0.791231 0.177028 0.585334
vn 0.957488 0.174443 -0.229754
vn 0.957488 0.174443 -0.229754
vn 0.957488 0.174443 -0.229754
vn 0.229145 0.072728 -0.970672
vn 0.229145 0.072728 -0.970672
vn 0.229145 0.072728 -0.970672
vn 0.221407 -0.267087 -0.937893
vn 0.221407 -0.267087 -0.937893
vn 0.221407 -0.267087 -0.937893
vn 0.667084 -0.398714 -0.629306
vn 0.667084 -0.398714 -0.629306
vn 0.667084 -0.398714 -0.629306
vn 0.988901 -0.139522 -0.051073
vn 0.988901 -0.139522 -0.051073
vn 0.988901 -0.139522 -0.051073
vn 0.421592 0.485671 0.765757
vn 0.421592 0.485671 0.765757
vn 0.421592 0.485671 0.765757
vn -0.689777 0.283307 -0.666291
vn -0.689777 0.283307 -0.666291
vn -0.689777 0.283307 -0.666291
vn -0.164576 -0.340626 -0.925683
vn -0.164576 -0.340626 -0.925683
vn -0.164576 -0.340626 -0.925683
vn 0.545657 -0.716786 -0.434139
vn 0.545657 -0.716786 -0.434139
vn 0.545657 -0.716786 -0.434139
vn 0.693907 -0.139084 0.706505
vn 0.693907 -0.139084 0.706505
vn 0.693907 -0.139084 0.706505
vn 0.356554 0.142388 0.923361
vn 0.356554 0.142388 0.923361
vn 0.356554 0.142388 0.923361
vn -0.698950 0.563942 0.439816
vn -0.698950 0.563942 0.439816
vn -0.698950 0.563942 0.439816
vn -0.803736 0.065114 -0.591413
vn -0.803736 0.065114 -0.591413
vn -0.803736 0.065114 -0.591413
vn -0.171283 -0.480647 -0.860023
vn -0.171283 -0.480647 -0.860023
vn -0.171283 -0.480647 -0.860023
vn 0.685770 -0.418907 0.595177
vn 0.685770 -0.418907 0.595177
vn 0.685770 -0.418907 0.595177
vn -0.249951 0.252857 0.934659
vn -0.249951 0.252857 0.934659
vn -0.249951 0.252857 0.934659
vn -0.704760 0.544811 0.454416
vn -0.704760 0.544811 0.454416
vn -0.704760 0.544811 0.454416
vn -0.775830 0.065029 -0.627581
vn -0.775830 0.065029 -0.627581
vn -0.775830 0.065029 -0.627581
vn -0.791231 -0.177028 -0.585334
vn -0.791230 -0.177028 -0.585334
vn -0.791230 -0.177028 -0.585334
vn -0.366329 0.042070 0.929534
vn -0.366329 0.042070 0.929534
vn -0.366329 0.042070 0.929534
vn -0.279770 0.174443 0.944086
vn -0.279770 0.174443 0.944086
vn -0.279770 0.174443 0.944086
vn 0.726054 0.072728 0.683781
vn 0.726054 0.072728 0.683781
vn 0.726054 0.072728 0.683781
vn 0.651763 -0.445461 0.613815
vn 0.651763 -0.445461 0.613815
vn 0.651763 -0.445461 0.613815
vn 0.149580 -0.599851 0.786005
vn 0.149580 -0.599851 0.786005
vn 0.149580 -0.599851 0.786005
vn -0.539284 -0.362519 0.760100
vn -0.539284 -0.362519 0.760100
vn -0.539284 -0.362519 0.760100
vn -0.873961 0.485671 -0.017769
vn -0.873961 0.485671 -0.017769
vn -0.873961 0.485671 -0.017769
vn 0.921914 0.283307 -0.264219
vn 0.921914 0.283307 -0.264219
vn 0.921914 0.283307 -0.264219
vn 0.921619 -0.356571 0.153216
vn 0.921619 -0.356571 0.153216
vn 0.921619 -0.356571 0.153216
vn 0.054343 -0.815320 0.576455
vn 0.054343 -0.815320 0.576455
vn 0.054343 -0.815320 0.576455
vn -0.906689 -0.235150 0.350171
vn -0.906689 -0.235150 0.350171
vn -0.906689 -0.235150 0.350171
vn -0.931108 0.357579 -0.071945
vn -0.931108 0.357579 -0.071945
vn -0.931108 0.357579 -0.071945
vn -0.031417 0.563942 -0.825217
vn -0.031417 0.563942 -0.825217
vn -0.031417 0.563942 -0.825217
vn 0.923819 0.263083 -0.278111
vn 0.923819 0.263083 -0.278111
vn 0.923819 0.263083 -0.278111
vn 0.893894 -0.443015 0.068491
vn 0.893894 -0.443015 0.068491
vn 0.893894 -0.443015 0.068491
vn -0.781913 -0.585817 0.213145
vn -0.781913 -0.585817 0.213145
vn -0.781913 -0.585817 0.213145
vn -0.583628 0.605116 -0.541491
vn -0.583628 0.605116 -0.541491
vn -0.583628 0.605116 -0.541491
vn 0.080031 0.755696 -0.650014
vn 0.080031 0.755696 -0.650014
vn 0.080031 0.755696 -0.650014
vn 0.546172 0.438994 -0.713429
vn 0.546172 0.438994 -0.713429
vn 0.546172 0.438994 -0.713429
vn 0.366329 -0.042070 -0.929534
vn 0.366329 -0.042070 -0.929534
vn 0.366329 -0.042070 -0.929534
vn 0.253026 -0.062470 -0.965440
vn 0.253027 -0.062470 -0.965440
vn 0.253026 -0.062470 -0.965440
s off
g pPlatonic5
usemtl blinn1SG
f 1/1/1 3/13/2 2/2/3
f 1/1/4 4/14/5 3/13/6
f 1/1/7 5/15/8 4/14/9
f 1/1/10 6/6/11 5/15/12
f 1/1/13 2/2/14 6/6/15
f 2/2/16 3/13/17 8/8/18
f 3/3/19 4/4/20 9/9/21
f 4/4/22 5/5/23 10/10/24
f 5/15/25 6/6/26 11/11/27
f 6/6/28 2/2/29 7/7/30
f 2/2/31 8/8/32 7/7/33
f 3/3/34 9/9/35 8/8/36
f 4/4/37 10/10/38 9/9/39
f 5/5/40 11/11/41 10/10/42
f 6/6/43 7/7/44 11/11/45
f 7/7/46 8/8/47 12/12/48
f 8/8/49 9/9/50 12/12/51
f 9/9/52 10/10/53 12/12/54
f 10/10/55 11/11/56 12/12/57
f 11/11/58 7/7/59 12/12/60
f 13/16/61 15/17/62 14/18/63
f 13/16/64 16/19/65 15/17/66
f 13/16/67 17/20/68 16/19/69
f 13/16/70 18/21/71 17/20/72
f 13/16/73 14/18/74 18/21/75
f 14/18/76 15/17/77 20/22/78
f 15/23/79 16/24/80 21/25/81
f 16/24/82 17/26/83 7/27/84
f 17/20/85 18/21/86 11/28/87
f 18/21/88 14/18/89 19/29/90
f 14/18/91 20/22/92 19/29/93
f 15/23/94 21/25/95 20/22/96
f 16/24/97 7/27/98 21/25/99
f 17/26/100 11/28/101 7/27/102
f 18/21/103 19/29/104 11/28/105
f 19/29/106 20/22/107 12/30/108
f 20/22/109 21/25/110 12/30/111
f 21/25/112 7/27/113 12/30/114
f 7/27/115 11/28/116 12/30/117
f 11/28/118 19/29/119 12/30/120
f 22/31/121 24/32/122 23/33/123
f 22/31/124 25/34/125 24/32/126
f 22/31/127 26/35/128 25/34/129
f 22/31/130 27/36/131 26/35/132
f 22/31/133 23/33/134 27/36/135
f 23/33/136 24/32/137 28/37/138
f 24/38/139 25/39/140 29/40/141
f 25/39/142 26/41/143 19/42/144
f 26/35/145 27/36/146 11/43/147
f 27/36/148 23/33/149 10/44/150
f 23/33/151 28/37/152 10/44/153
f 24/38/154 29/40/155 28/37/156
f 25/39/157 19/42/158 29/40/159
f 26/41/160 11/43/161 19/42/162
f 27/36/163 10/44/164 11/43/165
f 10/44/166 28/37/167 12/45/168
f 28/37/169 29/40/170 12/45/171
f 29/40/172 19/42/173 12/45/174
f 19/42/175 11/43/176 12/45/177
f 11/43/178 10/44/179 12/45/180
